<svg role="img" viewBox="0 0 64 64" xmlns="http://www.w3.org/2000/svg" id="Langchain--Streamline-Simple-Icons" height="64" width="64">
  <desc>
    Langchain Streamline Icon: https://streamlinehq.com
  </desc>
  <title>LangChain</title>
  <path d="M16.263466666666666 15.780000000000001C7.295733333333333 15.780000000000001 0 23.056533333333334 0 32s7.296 16.22 16.263466666666666 16.22h31.473066666666668C56.70426666666666 48.22 64 40.943466666666666 64 32s-7.296 -16.22 -16.263466666666666 -16.22ZM15.939733333333333 20.936c1.3146666666666667 0.03306666666666666 2.7199999999999998 0.6656 3.3946666666666663 1.6608 0.9794666666666667 1.2245333333333333 1.2741333333333333 2.8447999999999998 2.3850666666666664 3.981866666666667 1.4944 1.6314666666666666 3.1973333333333334 3.068 4.576266666666666 4.8053333333333335 1.3045333333333333 1.5877333333333334 2.2362666666666664 3.449866666666667 3.0496 5.326666666666666 0.3317333333333333 0.6226666666666667 0.3352 1.3872 0.8266666666666667 1.9192 0.24213333333333334 0.3210666666666666 1.4255999999999998 1.1954666666666665 1.1688 1.5053333333333332 0.148 0.3210666666666666 1.2538666666666667 0.7626666666666666 0.8701333333333332 1.0738666666666665 -0.5184 0.10666666666666666 -1.1010666666666666 0.12693333333333334 -1.4975999999999998 -0.2864 -0.14639999999999997 0.33599999999999997 -0.488 0.15893333333333332 -0.7517333333333333 0.1152a10.666666666666666 10.666666666666666 0 0 0 -0.06666666666666667 0.19626666666666664c-0.8767999999999999 0.058399999999999994 -1.5344 -0.8335999999999999 -1.952 -1.5066666666666664 -0.8295999999999999 -0.448 -1.7711999999999999 -0.7205333333333332 -2.6186666666666665 -1.1893333333333334 -0.04853333333333333 0.7719999999999999 0.12053333333333333 1.7293333333333332 -0.616 2.2274666666666665 -0.03733333333333333 1.484 2.2496 0.17493333333333333 2.4592 1.2810666666666666 -0.16266666666666665 0.017866666666666666 -0.3429333333333333 -0.025333333333333333 -0.47306666666666664 0.09946666666666666 -0.5970666666666666 0.5791999999999999 -1.2813333333333332 -0.43866666666666665 -1.9693333333333334 -0.018666666666666665 -0.9237333333333333 0.46399999999999997 -1.0154666666666667 0.8429333333333333 -2.158933333333333 0.9386666666666665 -0.06319999999999999 -0.09573333333333334 -0.03813333333333333 -0.15786666666666666 0.015733333333333332 -0.21626666666666666 0.32186666666666663 -0.37306666666666666 0.3453333333333333 -0.8122666666666666 0.8949333333333334 -0.9714666666666667 -0.5658666666666666 -0.08906666666666666 -1.0397333333333334 0.22213333333333332 -1.5162666666666667 0.4685333333333333 -0.6194666666666666 0.2533333333333333 -0.6144 -0.5709333333333333 -1.5674666666666666 0.04373333333333333 -0.1056 -0.08586666666666666 -0.055466666666666664 -0.16399999999999998 0.0048 -0.2304 0.24213333333333334 -0.2952 0.5605333333333333 -0.33866666666666667 0.9199999999999999 -0.3221333333333333 -1.768 -0.9829333333333332 -2.6002666666666663 1.2018666666666666 -3.4168000000000003 0.1152 -0.24533333333333332 0.0648 -0.3373333333333333 0.2848 -0.492 0.44053333333333333 -0.13333333333333333 -0.14613333333333334 -0.032799999999999996 -0.3232 -0.0264 -0.4952 -0.15946666666666665 -0.07466666666666666 -0.3616 -0.10933333333333334 -0.3144 -0.3642666666666666 -0.31226666666666664 -0.10533333333333333 -0.5301333333333333 0.07866666666666666 -0.7626666666666666 0.2538666666666667 -0.20986666666666667 -0.16213333333333332 0.14186666666666664 -0.39786666666666665 0.20693333333333333 -0.5666666666666667 0.18719999999999998 -0.32426666666666665 0.6133333333333333 -0.06666666666666667 0.8295999999999999 -0.3002666666666667 0.6149333333333333 -0.3488 1.472 0.21706666666666666 2.1746666666666665 0.12133333333333332 0.5413333333333333 0.06799999999999999 1.2117333333333333 -0.48666666666666664 0.9402666666666667 -1.04 -0.5789333333333333 -0.7378666666666667 -0.4773333333333333 -1.7029333333333332 -0.4904 -2.5853333333333333 -0.07146666666666666 -0.5144 -1.3093333333333332 -1.1685333333333332 -1.6671999999999998 -1.7231999999999998 -0.44239999999999996 -0.4994666666666666 -0.7866666666666666 -1.0792 -1.1314666666666666 -1.6485333333333332 -1.2442666666666666 -2.4021333333333335 -0.8527999999999999 -5.489066666666666 -2.420533333333333 -7.719199999999999 -0.7093333333333334 0.39093333333333335 -1.6333333333333333 0.20639999999999997 -2.2447999999999997 -0.3173333333333333 -0.3301333333333333 0.3 -0.34453333333333336 0.6927999999999999 -0.3706666666666667 1.1096 -0.7919999999999999 -0.7898666666666667 -0.6914666666666666 -2.2824 -0.05866666666666666 -3.1613333333333333 0.25839999999999996 -0.3472 0.5671999999999999 -0.6328 0.912 -0.8842666666666666 0.07786666666666667 -0.056799999999999996 0.10426666666666667 -0.11173333333333332 0.10266666666666666 -0.1992 0.31306666666666666 -1.4045333333333332 1.5370666666666666 -1.9709333333333332 2.851733333333333 -1.9378666666666666m33.0856 1.2266666666666666c1.4866666666666666 0 2.8815999999999997 0.5757333333333333 3.9306666666666663 1.6218666666666666s1.6266666666666665 2.4386666666666663 1.6266666666666665 3.9210666666666665c0 1.4826666666666668 -0.5778666666666666 2.8746666666666667 -1.6266666666666665 3.9194666666666667v0.0015999999999999999l-2.405333333333333 2.3986666666666663a5.546666666666667 5.546666666666667 0 0 1 -2.292533333333333 1.3775999999999997l-0.04373333333333333 0.012533333333333334 -0.015466666666666665 0.04373333333333333a5.466666666666666 5.466666666666666 0 0 1 -1.2639999999999998 1.9487999999999999l-2.4048 2.3986666666666663c-1.0490666666666666 1.0464 -2.445333333333333 1.6221333333333332 -3.9319999999999995 1.6221333333333332s-2.8815999999999997 -0.576 -3.9306666666666663 -1.6221333333333332c-2.1679999999999997 -2.1618666666666666 -2.1679999999999997 -5.6784 0 -7.840533333333333l2.4050666666666665 -2.3986666666666663a5.482666666666667 5.482666666666667 0 0 1 2.288 -1.3714666666666666l0.04533333333333334 -0.014133333333333333 0.015466666666666665 -0.042133333333333335a5.52 5.52 0 0 1 1.2671999999999999 -1.9565333333333332l2.4048 -2.3986666666666663c1.0490666666666666 -1.0464 2.4455999999999998 -1.6221333333333332 3.9319999999999995 -1.6221333333333332zm0 2.3906666666666663a3.1466666666666665 3.1466666666666665 0 0 0 -2.2367999999999997 0.9232l-2.4048 2.3986666666666663a3.1493333333333333 3.1493333333333333 0 0 0 -0.9138666666666666 2.4672l0.014133333333333333 0.15253333333333333c0.08613333333333334 0.7071999999999999 0.3973333333333333 1.3450666666666664 0.8997333333333333 1.8445333333333331 0.3466666666666667 0.34559999999999996 0.7287999999999999 0.5637333333333333 1.1922666666666666 0.7162666666666666a2.4 2.4 0 0 1 0.03733333333333333 0.42186666666666667 2.357333333333333 2.357333333333333 0 0 1 -0.6957333333333333 1.6810666666666665l-0.14773333333333333 0.14773333333333333c-0.8034666666666667 -0.27413333333333334 -1.4733333333333332 -0.6746666666666666 -2.0784 -1.2778666666666667a5.493333333333333 5.493333333333333 0 0 1 -1.5362666666666664 -2.9248l-0.0264 -0.15413333333333332 -0.12293333333333334 0.09813333333333332a2.9333333333333336 2.9333333333333336 0 0 0 -0.23359999999999997 0.21173333333333333l-2.4063999999999997 2.3986666666666663c-1.2328 1.2293333333333334 -1.2328 3.2319999999999998 0 4.461333333333333 0.6162666666666666 0.6146666666666667 1.4266666666666667 0.9226666666666665 2.2384 0.9229333333333334 0.8114666666666667 0 1.6205333333333334 -0.30826666666666663 2.2367999999999997 -0.9232l2.4050666666666665 -2.3986666666666663c1.2328 -1.2293333333333334 1.2328 -3.2301333333333333 0 -4.461333333333333a3.1199999999999997 3.1199999999999997 0 0 0 -1.1645333333333332 -0.7330666666666665 2.6666666666666665 2.6666666666666665 0 0 1 -0.03733333333333333 -0.4296c0 -0.6909333333333333 0.2728 -1.3466666666666667 0.7736000000000001 -1.8461333333333334 0.8050666666666666 0.27413333333333334 1.5199999999999998 0.7183999999999999 2.1231999999999998 1.3199999999999998 0.8018666666666667 0.7997333333333333 1.3317333333333332 1.8106666666666666 1.5349333333333333 2.9248l0.028 0.15413333333333332 0.12133333333333332 -0.09946666666666666a2.9333333333333336 2.9333333333333336 0 0 0 0.23653333333333332 -0.21173333333333333l2.405333333333333 -2.398933333333333c1.2325333333333333 -1.2293333333333334 1.2341333333333333 -3.2330666666666663 0 -4.462666666666666a3.1466666666666665 3.1466666666666665 0 0 0 -2.2386666666666666 -0.9232Zm-26.59466666666667 13.751199999999999 -0.0015999999999999999 0.0015999999999999999c-0.21146666666666664 0.8208 -0.27946666666666664 2.2181333333333333 -1.3493333333333333 2.2586666666666666 -0.088 0.4736 0.3274666666666667 0.6519999999999999 0.708 0.49973333333333336 0.37599999999999995 -0.172 0.5549333333333333 0.13546666666666665 0.6818666666666666 0.44186666666666663 0.5805333333333333 0.08453333333333332 1.4384 -0.1933333333333333 1.4709333333333332 -0.8794666666666666 -0.8666666666666667 -0.4978666666666667 -1.1341333333333332 -1.4447999999999999 -1.5098666666666667 -2.3224" fill="#000000" stroke-width="2.6667"></path>
</svg>