<svg xmlns="http://www.w3.org/2000/svg" fill="none" viewBox="0 0 48 48" id="Pandas--Streamline-Svg-Logos" height="48" width="48">
  <desc>
    Pandas Streamline Icon: https://streamlinehq.com
  </desc>
  <path fill="#130754" d="M16.5394 26.1165c-0.6468 0 -1.30565 -0.2677 -1.7182 -0.79235v2.8343h-1.29555V21.16155h1.1715l0.0447 0.76965c0.40185 -0.5914 1.11545 -0.9038 1.7963 -0.9038 1.30565 0 2.26745 1.094 2.26745 2.54455 0 1.4505 -0.9605 2.5452 -2.2662 2.54455Zm-0.4012 -4.1286c-0.75895 0 -1.3724 0.5914 -1.3724 1.58465 0 0.9933 0.61345 1.58595 1.3724 1.58595s1.37245 -0.5914 1.37245 -1.58465c0 -0.98335 -0.60125 -1.57405 -1.3497 -1.5858l-0.02275 -0.00015Zm7.55055 3.9957 -0.0447 -0.76965c-0.40185 0.5914 -1.1161 0.9038 -1.79695 0.9032 -1.30565 0 -2.26745 -1.09345 -2.26745 -2.54395 0 -1.4505 0.9599 -2.54455 2.26745 -2.54395 0.68085 0 1.3951 0.31495 1.79695 0.90385l0.0447 -0.76965h1.174v4.82015h-1.174Zm-1.4392 -3.9951c-0.75895 0 -1.3724 0.59145 -1.37305 1.5847 -0.0006 0.99325 0.61345 1.5853 1.37245 1.5853 0.75895 0 1.37305 -0.5914 1.37305 -1.58465 0 -0.9933 -0.6135 -1.58535 -1.37245 -1.58535Zm7.1399 3.99575V23.3175c0 -0.9372 -0.3231 -1.2496 -0.91455 -1.2496 -0.6141 0 -1.2836 0.5574 -1.2836 1.2269v2.68945h-1.29495v-4.8208h1.18345l0.05605 0.8931c0.32375 -0.6141 1.0487 -1.02665 1.7856 -1.02665 1.283 0 1.76355 0.8931 1.76355 2.08665v2.8683l-1.29555 -0.0006Zm6.04015 0.00125 -0.0447 -0.7703c-0.40185 0.5914 -1.1161 0.9038 -1.7963 0.9038 -1.30565 0 -2.26745 -1.094 -2.26745 -2.54455 0 -1.4505 0.9599 -2.5439 2.26745 -2.5439 0.64685 0 1.305 0.2683 1.7182 0.7923v-2.53255h1.29495V25.9855h-1.17215Zm-1.4392 -3.9951c-0.7558 0 -1.3724 0.59145 -1.3724 1.58405 0 0.99265 0.61345 1.58405 1.3724 1.58405 0.759 0 1.37245 -0.5908 1.37245 -1.58405s-0.6116 -1.58405 -1.37245 -1.58405Zm7.475 3.9957 -0.04475 -0.76965c-0.40185 0.59145 -1.11605 0.9032 -1.79695 0.9032 -1.30565 0 -2.2674 -1.0934 -2.2674 -2.54455 0 -1.45115 0.95985 -2.54395 2.2674 -2.54395 0.6809 0 1.3951 0.31495 1.79695 0.90445l0.04475 -0.7703h1.1715v4.8202l-1.1715 0.0006Zm-1.4392 -3.99505c-0.7558 0 -1.37245 0.5914 -1.37305 1.58465 -0.00065 0.9933 0.6141 1.5828 1.3724 1.5828 0.75835 0 1.37305 -0.5914 1.37305 -1.58465 0 -0.98335 -0.60125 -1.571 -1.3497 -1.58265l-0.0227 -0.00015Zm5.47835 4.1519c-0.681 -0.00565 -1.34785 -0.1947 -1.93045 -0.54735l0.21225 -0.89245 0.06565 0.03885c0.38975 0.22745 0.9552 0.49715 1.6305 0.49715 0.5133 0 0.87045 -0.1562 0.87045 -0.55805 0 -0.3458 -0.36845 -0.4686 -1.02665 -0.6248 -1.18285 -0.257 -1.6067 -0.8818 -1.6067 -1.56265 0 -0.75895 0.5914 -1.47255 1.89705 -1.47255 0.79235 0 1.48455 0.34575 1.6376 0.4352l-0.21225 0.8484c-0.4216 -0.2538 -0.9025 -0.39235 -1.3945 -0.40185 -0.524 0 -0.781 0.17825 -0.781 0.4686 0 0.3231 0.3351 0.4686 0.8478 0.59145 1.27225 0.26765 1.7856 0.8591 1.7856 1.50655 0.0025 1.03735 -0.75645 1.6735 -1.99535 1.6735Z" stroke-width="0.5"></path>
  <path fill="#130754" d="M2.936855 17.8788h1.517285v3.15045H2.936855v-3.15045Zm0 6.4716h1.517285v3.15045H2.936855v-3.15045ZM0.5 20.4693h1.517285v10.4724H0.5V20.4693Zm4.82395 6.48045h1.5173v3.15045h-1.5173v-3.15045Zm0 -6.47665h1.5173v3.15045h-1.5173v-3.15045Zm2.38645 -3.415h1.5173v10.47235h-1.5173V17.0581Z" stroke-width="0.5"></path>
  <path fill="#ffca00" d="M4.4543 21.94875H2.93701v1.4864H4.4543v-1.4864Z" stroke-width="0.5"></path>
  <path fill="#e70488" d="M6.84125 24.5432h-1.5173v1.48645h1.5173v-1.48645Z" stroke-width="0.5"></path>
</svg>